<?xml version="1.0" encoding="iso-8859-1"?>
<!-- Generator: Adobe Illustrator 19.0.0, SVG Export Plug-In . SVG Version: 6.00 Build 0)  -->
<svg version="1.1" id="Layer_1" xmlns="http://www.w3.org/2000/svg" xmlns:xlink="http://www.w3.org/1999/xlink" x="0px" y="0px"
	 viewBox="0 0 512 512" style="enable-background:new 0 0 512 512;" xml:space="preserve">
<path style="fill:#259245;" d="M395.901,7.286H116.099C56.003,7.286,7.286,56.003,7.286,116.099v279.803
	c0,60.095,48.717,108.812,108.812,108.812h279.803c60.095,0,108.812-48.717,108.812-108.812V116.099
	C504.714,56.003,455.997,7.286,395.901,7.286z"/>
<path d="M395.901,512H116.099C52.082,512,0,459.918,0,395.901V116.099C0,52.082,52.082,0,116.099,0h279.803
	C459.918,0,512,52.082,512,116.099v279.803C512,459.918,459.918,512,395.901,512z M116.099,14.573
	c-55.981,0-101.526,45.544-101.526,101.526v279.803c0,55.981,45.544,101.526,101.526,101.526h279.803
	c55.981,0,101.526-45.545,101.526-101.526V116.099c0-55.981-45.545-101.526-101.526-101.526
	C395.902,14.573,116.099,14.573,116.099,14.573z"/>
<polygon style="fill:#FFE000;" points="256,374.81 51.502,256 256,137.19 460.498,256 "/>
<path d="M256,382.097c-1.265,0-2.529-0.328-3.66-0.986L47.842,262.301c-2.245-1.305-3.626-3.705-3.626-6.301
	s1.381-4.996,3.626-6.301l204.498-118.81c2.264-1.315,5.057-1.315,7.321,0l204.498,118.81c2.245,1.305,3.626,3.705,3.626,6.301
	c0,2.596-1.381,4.996-3.626,6.301l-32.303,18.767c-3.48,2.02-7.939,0.841-9.961-2.64c-2.021-3.479-0.84-7.939,2.64-9.961
	L445.993,256L256,145.617L66.007,256L256,366.383l139.861-81.258c3.478-2.021,7.938-0.841,9.961,2.64
	c2.021,3.479,0.84,7.939-2.64,9.961L259.66,381.111C258.529,381.768,257.265,382.097,256,382.097z"/>
<circle style="fill:#103B9B;" cx="256" cy="256" r="67.47"/>
<path style="fill:#FFFFFF;" d="M316.265,293.777c-2.7,0-5.294-1.507-6.556-4.097c-10.094-20.712-27.403-36.941-48.741-45.697
	c-21.334-8.755-45.052-9.367-66.782-1.72c-3.794,1.333-7.955-0.659-9.292-4.455c-1.335-3.796,0.659-7.956,4.455-9.292
	c25.106-8.835,52.506-8.129,77.152,1.986c24.649,10.116,44.646,28.865,56.308,52.796c1.763,3.617,0.259,7.979-3.359,9.742
	C318.423,293.54,317.336,293.777,316.265,293.777z"/>
<path d="M256,330.753c-41.219,0-74.753-33.534-74.753-74.753s33.534-74.753,74.753-74.753s74.753,33.534,74.753,74.753
	S297.219,330.753,256,330.753z M256,195.82c-33.183,0-60.18,26.997-60.18,60.18s26.997,60.18,60.18,60.18s60.18-26.997,60.18-60.18
	S289.183,195.82,256,195.82z"/>
<g>
</g>
<g>
</g>
<g>
</g>
<g>
</g>
<g>
</g>
<g>
</g>
<g>
</g>
<g>
</g>
<g>
</g>
<g>
</g>
<g>
</g>
<g>
</g>
<g>
</g>
<g>
</g>
<g>
</g>
</svg>
