<?xml version="1.0" encoding="iso-8859-1"?>
<!-- Generator: Adobe Illustrator 19.0.0, SVG Export Plug-In . SVG Version: 6.00 Build 0)  -->
<svg version="1.1" id="Layer_1" xmlns="http://www.w3.org/2000/svg" xmlns:xlink="http://www.w3.org/1999/xlink" x="0px" y="0px"
	 viewBox="0 0 512 512" style="enable-background:new 0 0 512 512;" xml:space="preserve">
<rect x="7.286" y="131.64" style="fill:#FFE000;" width="497.43" height="248.71"/>
<g>
	<path style="fill:#ED1F34;" d="M395.901,7.287H116.099C56.003,7.287,7.286,56.003,7.286,116.099v15.545h497.427v-15.545
		C504.714,56.003,455.997,7.287,395.901,7.287z"/>
	<path style="fill:#ED1F34;" d="M7.286,395.901c0,60.095,48.717,108.812,108.812,108.812h279.803
		c60.095,0,108.812-48.717,108.812-108.812v-15.545H7.286V395.901z"/>
</g>
<path d="M395.901,0H116.099C52.082,0,0,52.082,0,116.099v279.803C0,459.918,52.082,512,116.099,512h279.803
	C459.918,512,512,459.918,512,395.901V116.099C512,52.082,459.918,0,395.901,0z M116.099,14.573h279.803
	c55.981,0,101.526,45.544,101.526,101.526v8.258H14.573v-8.258C14.573,60.117,60.117,14.573,116.099,14.573z M395.901,497.427
	H116.099c-55.982,0-101.526-45.544-101.526-101.526v-8.258h390.655c4.024,0,7.286-3.262,7.286-7.287s-3.262-7.286-7.286-7.286
	H14.573V138.93h482.854v234.14H438.39c-4.024,0-7.286,3.262-7.286,7.286s3.262,7.287,7.286,7.287h59.037v8.258
	C497.427,451.883,451.883,497.427,395.901,497.427z"/>
<g>
</g>
<g>
</g>
<g>
</g>
<g>
</g>
<g>
</g>
<g>
</g>
<g>
</g>
<g>
</g>
<g>
</g>
<g>
</g>
<g>
</g>
<g>
</g>
<g>
</g>
<g>
</g>
<g>
</g>
</svg>
