<svg id="_x33_0" enable-background="new 0 0 64 64" height="512" viewBox="0 0 64 64" width="512" xmlns="http://www.w3.org/2000/svg"><g><g><g><path d="m11.96 26.5c1.25-1.1 2.04-2.71 2.04-4.5 0-3.31-2.69-6-6-6s-6 2.69-6 6c0 1.79.79 3.4 2.04 4.5-1.24 1.1-2.04 2.7-2.04 4.5 0 2.61 1.67 4.84 4 5.65v11.35 4 11h4v-5-12-9.35c2.33-.81 4-3.04 4-5.65 0-1.8-.8-3.4-2.04-4.5z" fill="#cf9e76"/></g><g fill="#656d78"><path d="m58.41 21.05c-1.71-.86-2.98-2.41-3.48-4.26-2.33-8.72-10.23-14.79-19.25-14.79h-1.64c-2.75 0-5.38.8-7.6 2.24-2.22 1.43-4.04 3.48-5.18 5.99-.83 1.83-1.26 3.81-1.26 5.81v5.13c0 1.76.92 3.38 2.43 4.29l2.4 1.44h.01c-.55-1.7-.84-3.49-.84-5.31v-3.48c0-.74.08-1.47.24-2.19.07-.31.15-.62.25-.92h.01c1.33-4.14 5.19-7 9.61-7h1.78c4.42 0 8.28 2.86 9.61 7h.01c.1.3.18.61.25.92.16.72.24 1.45.24 2.19v3.48c0 2.19-.41 4.33-1.21 6.33l.21.08c5.58 0 10.76 2.93 13.63 7.72l1 1.67c.23.38.64.61 1.09.61.69 0 1.26-.56 1.26-1.26 0-2.65 0-8.64.02-9.83 0-.03 0-.05 0-.08 0-2.44-1.38-4.68-3.59-5.78z"/><path d="m54.73 39.18c-.48-2.09-1.43-4.05-2.77-5.73-1.29-1.61-2.92-2.93-4.77-3.86l-2.55-1.27c-.69 1.65-1.63 3.18-2.81 4.55-1.22 1.42-2.56 2.72-4.03 3.89l-1.67 1.34c3.33.53 5.87 3.42 5.87 6.9 0 1.96-.8 3.73-2.1 5h1.1v6h-3c-.83 0-1.58-.34-2.12-.88s-.88-1.29-.88-2.12c0-.35.06-.69.18-1h-.01c-.06 0-.11 0-.17 0-3.87 0-7-3.13-7-7 0-3.48 2.54-6.37 5.87-6.9l-1.67-1.34c-1.47-1.17-2.81-2.47-4.03-3.89-1.25-1.46-2.24-3.1-2.93-4.87h-.01l-1.84.64c-2.21.89-4.1 2.42-5.42 4.4-1.28 1.93-1.97 4.2-1.97 6.52v6.44h-6v12h7.08c1.26 0 2.49-.34 3.56-.99 1.04-.63 1.88-1.5 2.46-2.52.58-1.03.9-2.19.9-3.41v10.92h17c1.31 0 2.6-.34 3.74-.99l8.63-4.94c1.13-.64 2.03-1.56 2.66-2.64s.97-2.32.97-3.61c0-.54-.06-1.09-.18-1.62z"/></g><g><path d="m41 50v6h-3c-.83 0-1.58-.34-2.12-.88s-.88-1.29-.88-2.12c0-.35.06-.69.18-1 .4-1.17 1.51-2 2.82-2h1.9z" fill="#f5e0cd"/></g><g><path d="m6 48v4c0 1.1-.9 2-2 2-.55 0-1.05-.22-1.41-.59-.37-.36-.59-.86-.59-1.41v-4c0-1.1.9-2 2-2 .55 0 1.05.22 1.41.59.37.36.59.86.59 1.41z" fill="#f5e0cd"/></g><g><path d="m36.13 38.1c3.33.53 5.87 3.42 5.87 6.9 0 1.96-.8 3.73-2.1 5h-1.9c-1.31 0-2.42.83-2.82 2h-.01c-.06 0-.11 0-.17 0-3.87 0-7-3.13-7-7 0-3.48 2.54-6.37 5.87-6.9.36-.07.74-.1 1.13-.1s.77.03 1.13.1z" fill="#69d6f4"/></g><g><path d="m35.89 8c4.42 0 8.28 2.86 9.61 7h-2.5-1.4c-2.35 0-4.64-.7-6.6-2-1.95 1.3-4.25 2-6.6 2h-1.4-2.5c1.33-4.14 5.19-7 9.61-7z" fill="#e6e9ed"/></g><g><path d="m45.76 15.92c.16.72.24 1.45.24 2.19v3.48c0 2.19-.41 4.33-1.21 6.33-.04.14-.1.27-.15.4-.69 1.65-1.63 3.18-2.81 4.55-1.22 1.42-2.56 2.72-4.03 3.89l-1.67 1.34c-.36-.07-.74-.1-1.13-.1s-.77.03-1.13.1l-1.67-1.34c-1.47-1.17-2.81-2.47-4.03-3.89-1.25-1.46-2.24-3.1-2.93-4.87-.15-.36-.29-.72-.4-1.1-.55-1.7-.84-3.49-.84-5.31v-3.48c0-.74.08-1.47.24-2.19.07-.31.15-.62.25-.92h.01 2.5v.61c0 3.56.68 7.09 2 10.39h12c1.32-3.3 2-6.83 2-10.39v-.61h2.5.01c.1.3.18.61.25.92z" fill="#e6e9ed"/></g><g><path d="m35 23 .1-.1c.58-.58 1.36-.9 2.17-.9.48 0 .95.11 1.38.32.86.44 1.52 1.2 1.83 2.11l.52 1.57h-12l.52-1.57c.31-.91.97-1.67 1.83-2.11.43-.21.9-.32 1.38-.32.81 0 1.59.32 2.17.9z" fill="#e6e9ed"/></g><g><path d="m43 15.61c0 3.56-.68 7.09-2 10.39l-.52-1.57c-.31-.91-.97-1.67-1.83-2.11-.43-.21-.9-.32-1.38-.32-.81 0-1.59.32-2.17.9l-.1.1-.1-.1c-.58-.58-1.36-.9-2.17-.9-.48 0-.95.11-1.38.32-.86.44-1.52 1.2-1.83 2.11l-.52 1.57c-1.32-3.3-2-6.83-2-10.39v-.61h1.4c2.35 0 4.65-.7 6.6-2 1.96 1.3 4.25 2 6.6 2h1.4z" fill="#f0d0b4"/></g></g><g><circle cx="31" cy="18" r="1"/><circle cx="39" cy="18" r="1"/><path d="m58.86 20.154c-1.459-.73-2.537-2.052-2.959-3.628-2.445-9.141-10.762-15.526-20.225-15.526h-1.634c-5.884 0-11.259 3.461-13.693 8.817-.895 1.968-1.349 4.062-1.349 6.225v5.127c0 2.096 1.116 4.067 2.913 5.145l1.881 1.129-.775.272c-2.406.964-4.438 2.613-5.876 4.769-1.402 2.102-2.143 4.55-2.143 7.076v5.44h-4v-7.681c2.419-1.148 4-3.604 4-6.319 0-1.659-.6-3.254-1.658-4.509 1.036-1.235 1.658-2.807 1.658-4.491 0-3.859-3.14-7-7-7s-7 3.141-7 7c0 1.684.622 3.256 1.658 4.491-1.059 1.255-1.658 2.849-1.658 4.509 0 2.715 1.581 5.171 4 6.319v7.865c-.314-.112-.648-.184-1-.184-1.654 0-3 1.346-3 3v4c0 1.654 1.346 3 3 3 .352 0 .686-.072 1-.184v8.184h2v-27.056l-.667-.235c-1.993-.706-3.333-2.599-3.333-4.709 0-1.166.415-2.287 1.149-3.178.47.312.97.586 1.518.78l.666-1.887c-1.994-.704-3.333-2.599-3.333-4.715 0-2.757 2.243-5 5-5s5 2.243 5 5c0 2.116-1.339 4.011-3.333 4.715l.666 1.887c.548-.194 1.048-.468 1.518-.78.734.891 1.149 2.012 1.149 3.178 0 2.11-1.34 4.003-3.333 4.709l-.667.235v27.056h2v-4h6.084c1.435 0 2.843-.39 4.073-1.128.702-.421 1.313-.956 1.843-1.557v6.685h17 1c1.483 0 2.946-.389 4.232-1.124l8.635-4.935c2.55-1.456 4.133-4.185 4.133-7.121 0-.62-.071-1.24-.21-1.844l-2.083-9.024c-.513-2.225-1.538-4.342-2.963-6.123-.994-1.241-2.196-2.324-3.527-3.205 3.529 1.051 6.623 3.385 8.557 6.608l1.001 1.668c.406.678 1.15 1.1 1.941 1.1 1.248 0 2.264-1.014 2.265-2.26.001-2.643.004-8.631.019-9.815.035-2.838-1.59-5.497-4.14-6.771zm-53.86 31.846c0 .552-.449 1-1 1s-1-.448-1-1v-4c0-.552.449-1 1-1s1 .448 1 1zm35-1v4h-2c-1.103 0-2-.897-2-2s.897-2 2-2zm-.536-2h-1.464c-1.465 0-2.735.8-3.432 1.978-3.107-.223-5.568-2.815-5.568-5.978 0-3.309 2.691-6 6-6s6 2.691 6 6c0 1.495-.547 2.898-1.536 4zm-3.622-11.955c-.277-.029-.558-.045-.842-.045s-.565.016-.842.045l-1.338-1.071c-1.406-1.125-2.715-2.39-3.89-3.76-2.534-2.957-3.93-6.729-3.93-10.623v-3.482c0-.664.073-1.328.217-1.975.01-.046.025-.089.036-.134h.756c.045 3.441.694 6.808 1.931 10.018l-.327.982h14.774l-.327-.983c1.237-3.21 1.886-6.577 1.931-10.017h.756c.011.045.026.088.036.134.144.648.217 1.312.217 1.976v3.482c0 3.893-1.396 7.666-3.93 10.622-1.175 1.37-2.484 2.635-3.89 3.76zm5.094-13.933c-.447-.711-1.069-1.298-1.84-1.684-1.289-.641-2.907-.529-4.095.266-1.186-.792-2.804-.909-4.097-.265-.771.386-1.392.973-1.84 1.684-.67-2.31-1.021-4.692-1.055-7.113h.39c2.334 0 4.602-.627 6.6-1.817 1.998 1.19 4.266 1.817 6.602 1.817h.39c-.034 2.421-.385 4.803-1.055 7.112zm-1.323 1.888h-9.226l.084-.252c.22-.661.704-1.218 1.325-1.529.78-.388 1.787-.222 2.396.386l.808.813.806-.81c.613-.613 1.621-.774 2.396-.389.623.311 1.107.869 1.327 1.53zm1.988-11c-2.157 0-4.247-.633-6.043-1.829l-.676-.294-.438.292c-1.797 1.198-3.888 1.831-6.045 1.831h-2.422c1.514-3.026 4.605-5 8.133-5h1.78c3.528 0 6.619 1.974 8.133 5zm-16.601 47v-21h-2v11.085c0 2.065-1.101 4.009-2.872 5.072-.92.552-1.972.843-3.044.843h-6.084v-10h8v-2h-2v-5.44c0-2.131.625-4.194 1.807-5.966 1.212-1.818 2.926-3.209 4.914-4.005l.966-.338c.704 1.529 1.613 2.969 2.724 4.265 1.257 1.465 2.656 2.818 4.16 4.021l.192.154c-2.802 1.246-4.763 4.051-4.763 7.309 0 4.074 3.064 7.44 7.007 7.932-.001.023-.007.045-.007.068 0 2.206 1.794 4 4 4h2v4zm26.182-26.921c1.239 1.549 2.13 3.388 2.576 5.322l2.083 9.025c.106.456.159.925.159 1.394 0 2.22-1.197 4.284-3.125 5.385l-8.635 4.935c-.694.396-1.454.661-2.24.783v-10.923c0-.552.449-1 1-1h6v-2h-2v-7h-2v7h-2c-.091 0-.178.019-.267.027.17-.654.267-1.332.267-2.027 0-3.259-1.962-6.064-4.764-7.31l.193-.154c1.504-1.203 2.904-2.555 4.16-4.021 1.008-1.176 1.846-2.471 2.52-3.842l1.632.816c1.71.855 3.245 2.096 4.441 3.59zm9.799 2.66c-.001.237-.368.337-.492.132l-1.001-1.668c-2.73-4.549-7.494-7.541-12.716-8.1l1.314-.789c1.798-1.078 2.914-3.049 2.914-5.145v-5.127h-2v5.127c0 1.397-.744 2.711-1.942 3.43l-.344.206c.189-1.055.286-2.13.286-3.214v-3.482c0-.809-.089-1.62-.265-2.409-1.138-5.123-5.597-8.7-10.845-8.7h-1.78c-5.248 0-9.707 3.577-10.845 8.701-.176.789-.265 1.599-.265 2.409v3.482c0 1.083.097 2.158.286 3.213l-.344-.206c-1.198-.719-1.942-2.033-1.942-3.43v-5.127c0-1.875.394-3.69 1.168-5.396 2.112-4.645 6.772-7.646 11.873-7.646h1.634c8.56 0 16.082 5.775 18.294 14.044.57 2.128 2.027 3.914 3.997 4.899 1.869.935 3.06 2.88 3.034 4.956-.015 1.188-.019 7.19-.019 9.84z"/><path d="m35 41v2c1.103 0 2 .897 2 2h2c0-2.206-1.794-4-4-4z"/></g></g></svg>