<svg height="512pt" viewBox="0 0 512 512" width="512pt" xmlns="http://www.w3.org/2000/svg"><path d="M501.965 256c0-135.863-110.13-246-245.98-246C120.128 10 10 120.137 10 256s110.129 246 245.984 246c135.852 0 245.98-110.137 245.98-246zm0 0" fill="#ffc838"/><path d="M255.984 512c-68.379 0-132.66-26.629-181.007-74.98C26.629 388.668 0 324.379 0 256S26.629 123.332 74.977 74.98C123.324 26.63 187.605 0 255.984 0c68.375 0 132.657 26.629 181.008 74.98 48.348 48.352 74.973 112.641 74.973 181.02s-26.625 132.668-74.977 181.02C388.641 485.37 324.36 512 255.984 512zm0-492C125.86 20 20 125.867 20 256s105.86 236 235.984 236c130.121 0 235.98-105.867 235.98-236S386.106 20 255.985 20zm0 0"/><path d="M449.477 256c0-106.871-86.633-193.504-193.493-193.504C149.121 62.496 62.492 149.13 62.492 256s86.63 193.504 193.492 193.504c106.86 0 193.493-86.633 193.493-193.504zm0 0" fill="#fbe37b"/><path d="M378.652 116.352c-.648 0-1.3-.07-1.949-.204a10.05 10.05 0 01-1.871-.57c-.598-.25-1.18-.558-1.73-.918-.54-.36-1.059-.781-1.52-1.238a9.508 9.508 0 01-1.238-1.524 9.877 9.877 0 01-.922-1.726c-.25-.602-.438-1.23-.57-1.871-.13-.64-.2-1.301-.2-1.95 0-.652.07-1.312.2-1.96.132-.63.32-1.262.57-1.871.25-.598.562-1.18.922-1.72a9.31 9.31 0 011.238-1.519c.461-.46.98-.883 1.52-1.25.543-.36 1.132-.66 1.73-.91.602-.25 1.23-.45 1.871-.57a9.835 9.835 0 013.91 0 9.74 9.74 0 011.871.57c.598.25 1.18.55 1.72.91.55.367 1.058.79 1.519 1.25a10.032 10.032 0 012.172 3.239c.25.609.437 1.242.57 1.87.129.65.187 1.31.187 1.962 0 .648-.058 1.308-.187 1.949-.133.64-.32 1.27-.57 1.87a9.877 9.877 0 01-.922 1.727 10.26 10.26 0 01-1.25 1.524 10.059 10.059 0 01-7.07 2.93zm0 0"/><path d="M255.984 459.504c-112.207 0-203.492-91.29-203.492-203.504S143.777 52.496 255.984 52.496c29.16 0 57.32 6.04 83.692 17.957 5.035 2.274 7.27 8.195 4.996 13.23-2.274 5.032-8.2 7.27-13.23 4.997-23.766-10.739-49.157-16.184-75.458-16.184-101.18 0-183.492 82.32-183.492 183.504s82.313 183.504 183.492 183.504c101.176 0 183.493-82.32 183.493-183.504 0-39.93-12.602-77.89-36.442-109.773-3.305-4.422-2.398-10.692 2.024-13.997 4.421-3.308 10.687-2.402 13.996 2.02 26.441 35.367 40.422 77.469 40.422 121.75 0 112.215-91.29 203.504-203.493 203.504zm0 0"/><path d="M181.348 347.105h149.27c9.093 0 16.464-7.37 16.464-16.464V181.355c0-9.09-7.371-16.46-16.465-16.46h-149.27c-9.093 0-16.464 7.37-16.464 16.46v149.286c0 9.093 7.37 16.464 16.465 16.464zm0 0" fill="#e6c8a0"/><path d="M330.621 357.105H181.348c-14.594 0-26.465-11.87-26.465-26.464V181.355c0-14.59 11.87-26.46 26.465-26.46h149.27c14.593 0 26.464 11.87 26.464 26.46v149.286c0 14.593-11.871 26.464-26.46 26.464zm-149.273-182.21a6.47 6.47 0 00-6.465 6.464v149.286a6.47 6.47 0 006.465 6.46h149.27a6.47 6.47 0 006.464-6.46v-149.29a6.47 6.47 0 00-6.465-6.46zm0 0"/><path d="M203.676 203.691h104.613V308.31H203.676zm0 0" fill="#fff"/><path d="M308.29 318.309H203.675c-5.524 0-10-4.477-10-10V203.69c0-5.523 4.476-10 10-10h104.613c5.524 0 10 4.477 10 10V308.31c0 5.523-4.476 10-10 10zm-94.614-20h84.613V213.69h-84.613zm0 0"/></svg>