<svg width="48" height="48" viewBox="0 0 48 48" fill="none" xmlns="http://www.w3.org/2000/svg"><link xmlns="" type="text/css" rel="stylesheet" id="dark-mode-custom-link"/><link xmlns="" type="text/css" rel="stylesheet" id="dark-mode-general-link"/><style xmlns="" lang="en" type="text/css" id="dark-mode-custom-style"/><style xmlns="" lang="en" type="text/css" id="dark-mode-native-style"/>
<path d="M23.0246 11.2152C22.8499 10.1025 22.5529 8.97218 22.0987 7.84183C22.0288 7.68287 21.959 7.50625 21.8891 7.3473C21.8716 7.29431 21.8367 7.24133 21.8192 7.18834C21.7668 7.08237 21.7144 6.9764 21.662 6.87043C21.627 6.79978 21.5921 6.7468 21.5746 6.67615C21.5222 6.58784 21.4873 6.48187 21.4349 6.39356C21.3999 6.32292 21.365 6.26993 21.33 6.19928C21.2602 6.05799 21.1903 5.93436 21.1029 5.81072C21.0505 5.72241 20.9981 5.63411 20.9457 5.5458C20.9108 5.49281 20.8758 5.43983 20.8584 5.38684C20.806 5.29853 20.7536 5.21022 20.6837 5.12191C20.6487 5.08659 20.6313 5.03361 20.5963 4.99828C20.5264 4.90997 20.474 4.804 20.4042 4.71569C19.3909 3.2321 18.203 2.04877 16.9627 1.23632C16.5783 0.989059 16.194 0.777118 15.8097 0.6005C15.4254 0.423883 15.041 0.282588 14.6567 0.176618C14.5344 0.141294 14.4121 0.123632 14.2724 0.0883089C14.2724 0.0883089 14.2724 0.0883089 14.2549 0.0883089C14.1326 0.0706471 14.0278 0.0529853 13.9055 0.0353236C13.888 0.0353236 13.888 0.0353236 13.8706 0.0353236C13.7483 0.0176618 13.6435 0.0176618 13.5212 0C13.5037 0 13.5037 0 13.4862 0C13.3814 0 13.2591 0 13.1543 0C13.1368 0 13.1194 0 13.1019 0C12.9971 0 12.8923 0 12.7875 0.0176618C12.77 0.0176618 12.735 0.0176618 12.7176 0.0176618C12.6128 0.0176618 12.5254 0.0353235 12.4381 0.0529853C12.4031 0.0529853 12.3857 0.0529853 12.3507 0.0706471C12.2634 0.0883089 12.176 0.105971 12.0712 0.123632C12.0363 0.123632 12.0013 0.141294 11.9664 0.141294C11.879 0.158956 11.8092 0.19428 11.7218 0.211941C11.6869 0.229603 11.6345 0.229603 11.5995 0.247265C11.5297 0.264927 11.4598 0.30025 11.3899 0.317912C11.3375 0.317912 11.2851 0.335574 11.2327 0.370897C11.1104 0.423883 11.0056 0.476868 10.8833 0.529853C10.3767 0.79478 9.90499 1.14802 9.50319 1.5719C8.96163 2.13707 8.50743 2.84355 8.15803 3.63833C8.19297 3.51469 8.22791 3.40872 8.28032 3.28509L6.95264 6.55252L5.17075 7.40028C5.17075 7.40028 5.17075 7.40028 5.18822 7.40028C5.04846 7.43561 4.90871 7.48859 4.76895 7.52392C4.4545 7.62989 4.15752 7.75352 3.86054 7.89481C3.56355 8.03611 3.30151 8.1774 3.03947 8.35402C2.13105 8.9192 1.4148 9.66099 0.960597 10.5794C0.960597 10.5971 0.943127 10.5971 0.943127 10.6147C0.890719 10.7207 0.85578 10.809 0.803371 10.915C-0.314677 13.5642 1.03047 16.814 3.98282 19.322C4.00029 19.3396 4.03523 19.3573 4.0527 19.375C4.17499 19.4809 4.29727 19.5692 4.41956 19.6752C4.4545 19.7105 4.48944 19.7282 4.54185 19.7635C4.64666 19.8518 4.76895 19.9225 4.87377 20.0108C4.92618 20.0461 4.97858 20.0814 5.03099 20.1168C5.13581 20.1874 5.24063 20.2581 5.34544 20.3464C5.39785 20.3817 5.46773 20.417 5.52014 20.4523C5.62496 20.523 5.72977 20.5936 5.83459 20.6643C5.90447 20.6996 5.95688 20.7349 6.02675 20.7879C6.13157 20.8586 6.23639 20.9115 6.35868 20.9822C6.42855 21.0175 6.49843 21.0528 6.55084 21.0882C6.65566 21.1588 6.77794 21.2118 6.88276 21.2648C6.95264 21.3001 7.02252 21.3354 7.07493 21.3707C7.19721 21.4414 7.3195 21.4944 7.45925 21.5474C7.51166 21.5827 7.58154 21.6003 7.63395 21.6357C7.82611 21.724 8.01828 21.8123 8.21044 21.8829C10.2544 22.7484 12.3158 23.031 14.2025 23.0133C14.7091 22.9956 15.2157 22.978 15.6874 22.925C15.8446 22.9073 16.0018 22.8897 16.1591 22.872C18.797 22.5011 20.771 21.5827 21.2776 21.0528C21.6445 20.6996 22.1861 19.6399 22.6053 18.1563C22.6577 17.9973 22.6927 17.8207 22.7451 17.6441C23.0071 16.5667 23.1993 15.2951 23.2342 13.9175C23.2342 13.7409 23.2342 13.5642 23.2342 13.3876C23.1993 12.6812 23.1294 11.957 23.0246 11.2152Z" fill="#9FDE47"/>
<path d="M11.0931 24.7394C9.99256 24.916 8.87451 25.2162 7.75646 25.6754C7.59924 25.7461 7.42454 25.8167 7.26732 25.8874C7.21491 25.905 7.1625 25.9404 7.11009 25.958C7.00527 26.011 6.90046 26.064 6.79564 26.117C6.72576 26.1523 6.67335 26.1876 6.60348 26.2053C6.51613 26.2583 6.41131 26.2936 6.32396 26.3466C6.25408 26.3819 6.20168 26.4172 6.1318 26.4526C5.99204 26.5232 5.86976 26.5939 5.74747 26.6822C5.66012 26.7352 5.57277 26.7881 5.48543 26.8411C5.43302 26.8764 5.38061 26.9118 5.3282 26.9294C5.24085 26.9824 5.15351 27.0354 5.06616 27.106C5.03122 27.1414 4.97881 27.159 4.94387 27.1944C4.85652 27.265 4.75171 27.318 4.66436 27.3886C3.19692 28.413 2.02646 29.614 1.22287 30.868C0.978293 31.2566 0.768658 31.6451 0.593963 32.0337C0.419268 32.4222 0.279512 32.8108 0.174695 33.1994C0.139756 33.323 0.122287 33.4466 0.0873475 33.5879C0.0873475 33.5879 0.0873475 33.5879 0.0873475 33.6056C0.069878 33.7292 0.0524085 33.8352 0.034939 33.9588C0.034939 33.9765 0.034939 33.9765 0.034939 33.9941C0.0174695 34.1178 0.0174695 34.2237 0 34.3474C0 34.365 0 34.365 0 34.3827C0 34.4887 0 34.6123 0 34.7183C0 34.7359 0 34.7536 0 34.7713C0 34.8772 0 34.9832 0.0174695 35.0892C0.0174695 35.1068 0.0174695 35.1422 0.0174695 35.1598C0.0174695 35.2658 0.034939 35.3541 0.0524085 35.4424C0.0524085 35.4777 0.0524085 35.4954 0.069878 35.5307C0.0873475 35.619 0.104817 35.7073 0.122287 35.8133C0.122287 35.8486 0.139756 35.884 0.139756 35.9193C0.157226 36.0076 0.192165 36.0782 0.209634 36.1665C0.227104 36.2019 0.227104 36.2549 0.244573 36.2902C0.262043 36.3608 0.296982 36.4315 0.314451 36.5021C0.331921 36.5551 0.34939 36.6081 0.36686 36.6611C0.419268 36.7847 0.471677 36.8907 0.524085 37.0143C0.786128 37.5265 1.13552 38.0034 1.55479 38.4096C2.11381 38.9571 2.81259 39.4163 3.59872 39.7695C3.47643 39.7342 3.37162 39.6989 3.24933 39.6459L6.48119 40.9882L7.30226 42.7897C7.30226 42.7897 7.30226 42.7897 7.30226 42.772C7.33719 42.9133 7.3896 43.0546 7.42454 43.1959C7.52936 43.5138 7.65165 43.8141 7.7914 44.1143C7.93116 44.4146 8.07091 44.6795 8.24561 44.9444C8.8221 45.8629 9.55582 46.587 10.4642 47.0462C10.4817 47.0462 10.4817 47.0639 10.4992 47.0639C10.604 47.1168 10.6913 47.1522 10.7962 47.2052C13.4341 48.3178 16.631 46.9756 19.1291 43.973C19.1466 43.9554 19.1641 43.9201 19.1815 43.9024C19.2863 43.7788 19.3737 43.6551 19.4785 43.5315C19.5134 43.4962 19.5309 43.4609 19.5658 43.4079C19.6532 43.3019 19.7231 43.1783 19.8104 43.0723C19.8454 43.0193 19.8803 42.9663 19.9152 42.9133C19.9851 42.8074 20.055 42.7014 20.1423 42.5954C20.1773 42.5424 20.2122 42.4718 20.2472 42.4188C20.317 42.3128 20.3869 42.2069 20.4568 42.1009C20.4917 42.0303 20.5267 41.9773 20.5791 41.9066C20.649 41.8006 20.7014 41.6947 20.7712 41.571C20.8062 41.5004 20.8411 41.4298 20.8761 41.3768C20.9459 41.2708 20.9984 41.1472 21.0508 41.0412C21.0857 40.9705 21.1206 40.8999 21.1556 40.8469C21.2255 40.7233 21.2779 40.5996 21.3303 40.4584C21.3652 40.4054 21.3827 40.3347 21.4176 40.2817C21.505 40.0875 21.5923 39.8932 21.6622 39.6989C22.5182 37.6325 22.7977 35.5484 22.7802 33.6409C22.7628 33.1287 22.7453 32.6165 22.6929 32.1397C22.6754 31.9807 22.658 31.8217 22.6405 31.6628C22.2736 28.9959 21.3652 27.0001 20.8411 26.4879C20.4917 26.117 19.4436 25.5695 17.9761 25.1456C17.8189 25.0926 17.6442 25.0573 17.4695 25.0043C16.4039 24.7394 15.1461 24.5451 13.7834 24.5098C13.6087 24.5098 13.4341 24.5098 13.2594 24.5098C12.5431 24.5628 11.8269 24.6157 11.0931 24.7394Z" fill="#9FDE47"/>
<path d="M24.9927 36.7853C25.1674 37.8979 25.4644 39.0283 25.9186 40.1587C25.9885 40.3176 26.0584 40.4942 26.1282 40.6532C26.1457 40.7062 26.1807 40.7592 26.1981 40.8121C26.2505 40.9181 26.3029 41.0241 26.3554 41.1301C26.3903 41.2007 26.4252 41.2537 26.4427 41.3243C26.4951 41.4126 26.53 41.5186 26.5825 41.6069C26.6174 41.6776 26.6523 41.7306 26.6873 41.8012C26.7572 41.9425 26.827 42.0661 26.9144 42.1898C26.9668 42.2781 27.0192 42.3664 27.0716 42.4547C27.1065 42.5077 27.1415 42.5607 27.159 42.6136C27.2114 42.702 27.2638 42.7903 27.3336 42.8786C27.3686 42.9139 27.3861 42.9669 27.421 43.0022C27.4909 43.0905 27.5433 43.1965 27.6132 43.2848C28.6264 44.7684 29.8143 45.9517 31.0547 46.7642C31.439 47.0114 31.8233 47.2234 32.2076 47.4C32.592 47.5766 32.9763 47.7179 33.3606 47.8239C33.4829 47.8592 33.6052 47.8769 33.745 47.9122C33.745 47.9122 33.745 47.9122 33.7624 47.9122C33.8847 47.9298 33.9895 47.9475 34.1118 47.9652C34.1293 47.9652 34.1293 47.9652 34.1468 47.9652C34.269 47.9828 34.3739 47.9828 34.4961 48.0005C34.5136 48.0005 34.5136 48.0005 34.5311 48.0005C34.6359 48.0005 34.7582 48.0005 34.863 48.0005C34.8805 48.0005 34.8979 48.0005 34.9154 48.0005C35.0202 48.0005 35.1251 48.0005 35.2299 47.9828C35.2473 47.9828 35.2823 47.9828 35.2997 47.9828C35.4046 47.9828 35.4919 47.9652 35.5793 47.9475C35.6142 47.9475 35.6317 47.9475 35.6666 47.9298C35.754 47.9122 35.8413 47.8945 35.9461 47.8769C35.9811 47.8769 36.016 47.8592 36.0509 47.8592C36.1383 47.8415 36.2082 47.8062 36.2955 47.7885C36.3304 47.7709 36.3829 47.7709 36.4178 47.7532C36.4877 47.7356 36.5576 47.7002 36.6274 47.6826C36.6798 47.6649 36.7322 47.6472 36.7847 47.6296C36.9069 47.5766 37.0118 47.5236 37.134 47.4706C37.6407 47.2057 38.1123 46.8525 38.5141 46.4286C39.0557 45.8634 39.5099 45.1569 39.8593 44.3622C39.8244 44.4858 39.7894 44.5918 39.737 44.7154L41.0647 41.448L42.8466 40.6179C42.8466 40.6179 42.8466 40.6179 42.8291 40.6179C42.9689 40.5825 43.1086 40.5296 43.2484 40.4942C43.5628 40.3883 43.8598 40.2646 44.1568 40.1233C44.4538 39.982 44.7158 39.8407 44.9779 39.6641C45.8863 39.0813 46.6025 38.3395 47.0567 37.4211C47.0567 37.4034 47.0742 37.4034 47.0742 37.3858C47.1266 37.2798 47.1615 37.1915 47.214 37.0855C48.3145 34.4186 46.9869 31.1865 44.017 28.6608C43.9996 28.6432 43.9646 28.6255 43.9472 28.6079C43.8249 28.5019 43.7026 28.4136 43.5803 28.3076C43.5454 28.2723 43.5104 28.2546 43.458 28.2193C43.3532 28.131 43.2309 28.0603 43.1261 27.972C43.0737 27.9367 43.0213 27.9014 42.9689 27.8661C42.864 27.7954 42.7592 27.7248 42.6544 27.6365C42.602 27.6011 42.5321 27.5658 42.4797 27.5305C42.3749 27.4598 42.2701 27.3892 42.1653 27.3185C42.0954 27.2832 42.043 27.2479 41.9731 27.1949C41.8683 27.1243 41.7635 27.0713 41.6412 27.0006C41.5713 26.9653 41.5014 26.93 41.449 26.8947C41.3442 26.824 41.2219 26.771 41.1171 26.718C41.0472 26.6827 40.9773 26.6474 40.9249 26.6121C40.8026 26.5414 40.6804 26.4884 40.5406 26.4355C40.4882 26.4001 40.4183 26.3825 40.3659 26.3471C40.1737 26.2588 39.9816 26.1705 39.7894 26.0999C37.7455 25.2344 35.6841 24.9519 33.7974 24.9695C33.2908 24.9872 32.7841 25.0048 32.3125 25.0578C32.1552 25.0755 31.998 25.0932 31.8408 25.1108C29.2029 25.4817 27.2288 26.4001 26.7222 26.93C26.3554 27.2832 25.8138 28.3429 25.3945 29.8265C25.3421 29.9855 25.3072 30.1621 25.2548 30.3387C24.9927 31.4161 24.8006 32.6877 24.7656 34.0653C24.7656 34.242 24.7656 34.4186 24.7656 34.5952C24.818 35.337 24.8704 36.0611 24.9927 36.7853Z" fill="#9FDE47"/>
<path d="M36.9066 23.2776C38.0072 23.101 39.1252 22.8008 40.2433 22.3416C40.4005 22.2709 40.5752 22.2003 40.7324 22.1296C40.7849 22.112 40.8373 22.0766 40.8897 22.059C40.9945 22.006 41.0993 21.953 41.2041 21.9C41.274 21.8647 41.3264 21.8294 41.3963 21.8117C41.4836 21.7587 41.5884 21.7234 41.6758 21.6704C41.7457 21.6351 41.7981 21.5998 41.868 21.5644C42.0077 21.4938 42.13 21.4231 42.2523 21.3348C42.3396 21.2819 42.427 21.2289 42.5143 21.1759C42.5667 21.1406 42.6192 21.1052 42.6716 21.0876C42.7589 21.0346 42.8463 20.9816 42.9336 20.911C42.9685 20.8756 43.021 20.858 43.0559 20.8226C43.1432 20.752 43.2481 20.699 43.3354 20.6284C44.8028 19.604 45.9733 18.403 46.7769 17.149C47.0215 16.7604 47.2311 16.3719 47.4058 15.9833C47.5805 15.5948 47.7203 15.2062 47.8251 14.8176C47.86 14.694 47.8775 14.5704 47.9124 14.4291C47.9124 14.4291 47.9124 14.4291 47.9124 14.4114C47.9299 14.2878 47.9474 14.1818 47.9648 14.0582C47.9648 14.0405 47.9648 14.0405 47.9648 14.0229C47.9823 13.8992 47.9823 13.7933 47.9998 13.6696C47.9998 13.652 47.9998 13.652 47.9998 13.6343C47.9998 13.5283 47.9998 13.4047 47.9998 13.2987C47.9998 13.2811 47.9998 13.2634 47.9998 13.2457C47.9998 13.1398 47.9998 13.0338 47.9823 12.9278C47.9823 12.9102 47.9823 12.8749 47.9823 12.8572C47.9823 12.7512 47.9648 12.6629 47.9474 12.5746C47.9474 12.5393 47.9474 12.5216 47.9299 12.4863C47.9124 12.398 47.8949 12.3097 47.8775 12.2037C47.8775 12.1684 47.86 12.1331 47.86 12.0977C47.8425 12.0094 47.8076 11.9388 47.7901 11.8505C47.7727 11.8151 47.7727 11.7622 47.7552 11.7268C47.7377 11.6562 47.7028 11.5855 47.6853 11.5149C47.6678 11.4619 47.6504 11.4089 47.6329 11.3559C47.5805 11.2323 47.5281 11.1263 47.4757 11.0027C47.2136 10.4905 46.8642 10.0136 46.445 9.60742C45.886 9.05991 45.1872 8.6007 44.401 8.24747C44.5233 8.28279 44.6281 8.31812 44.7504 8.3711L41.5186 7.02881L40.6975 5.22731C40.6975 5.22731 40.6975 5.2273 40.6975 5.24497C40.6626 5.10367 40.6102 4.96238 40.5752 4.82108C40.4704 4.50317 40.3481 4.20292 40.2084 3.90267C40.0686 3.60242 39.9288 3.3375 39.7542 3.07257C39.1777 2.15416 38.4439 1.43002 37.5355 0.970819C37.5181 0.970819 37.5181 0.953157 37.5006 0.953157C37.3958 0.900172 37.3084 0.864848 37.2036 0.811863C34.5657 -0.300829 31.3688 1.04147 28.8706 4.04397C28.8532 4.06163 28.8357 4.09695 28.8182 4.11461C28.7134 4.23825 28.6261 4.36188 28.5213 4.48551C28.4863 4.52083 28.4688 4.55616 28.4339 4.60914C28.3466 4.71511 28.2767 4.83875 28.1893 4.94472C28.1544 4.9977 28.1195 5.05069 28.0845 5.10367C28.0146 5.20964 27.9448 5.31561 27.8574 5.42158C27.8225 5.47457 27.7875 5.54522 27.7526 5.5982C27.6827 5.70417 27.6128 5.81014 27.543 5.91611C27.508 5.98676 27.4731 6.03975 27.4207 6.11039C27.3508 6.21636 27.2984 6.32233 27.2285 6.44597C27.1936 6.51661 27.1586 6.58726 27.1237 6.64025C27.0538 6.74622 27.0014 6.86985 26.949 6.97582C26.9141 7.04647 26.8791 7.11712 26.8442 7.1701C26.7743 7.29373 26.7219 7.41737 26.6695 7.55866C26.6345 7.61164 26.6171 7.68229 26.5821 7.73528C26.4948 7.92956 26.4074 8.12384 26.3376 8.31812C25.4816 10.3845 25.202 12.4686 25.2195 14.3761C25.237 14.8883 25.2545 15.4005 25.3069 15.8774C25.3243 16.0363 25.3418 16.1953 25.3593 16.3542C25.7261 19.0211 26.6345 21.0169 27.1586 21.5291C27.508 21.9 28.5562 22.4475 30.0236 22.8714C30.1809 22.9244 30.3556 22.9597 30.5302 23.0127C31.5959 23.2776 32.8537 23.4719 34.2163 23.5072C34.391 23.5072 34.5657 23.5072 34.7404 23.5072C35.4741 23.4543 36.1904 23.3836 36.9066 23.2776Z" fill="#9FDE47"/>
</svg>